<svg width="20" height="20" viewBox="0 0 20 20" fill="none" xmlns="http://www.w3.org/2000/svg">
<path d="M10 8.54102C11.7259 8.54102 13.125 7.14191 13.125 5.41602C13.125 3.69013 11.7259 2.29102 10 2.29102C8.27411 2.29102 6.875 3.69013 6.875 5.41602C6.875 7.14191 8.27411 8.54102 10 8.54102Z" stroke="#646363" stroke-width="1.25" stroke-linejoin="round"/>
<path d="M8.54258 16.8743H5.58163C4.59953 16.8743 3.81233 16.0145 4.153 15.0934C5.03092 12.7196 7.17497 11.041 10.0009 11.041C10.6667 11.041 11.2946 11.1342 11.877 11.3077" stroke="#646363" stroke-width="1.25" stroke-linecap="round" stroke-linejoin="round"/>
<path d="M11.458 17.7083V16.9403C11.458 16.4983 11.6336 16.0744 11.9462 15.7618L15.3122 12.3958C15.7148 11.9931 16.3678 11.9931 16.7705 12.3958C17.1732 12.7985 17.1732 13.4514 16.7705 13.8541L13.4045 17.2201C13.0919 17.5327 12.668 17.7083 12.226 17.7083H11.458Z" stroke="#646363" stroke-width="1.25" stroke-linecap="round" stroke-linejoin="round"/>
</svg>
