<svg width="20" height="20" viewBox="0 0 20 20" fill="none" xmlns="http://www.w3.org/2000/svg">
<path d="M6.56533 4.34447L5.97928 4.20923C5.48368 4.09487 4.96413 4.24387 4.60449 4.60352C4.24485 4.96316 4.09584 5.48271 4.21021 5.9783L4.34545 6.56435C4.50134 7.23985 4.22279 7.94132 3.64597 8.32587L2.93337 8.80093C2.53267 9.0681 2.29199 9.51777 2.29199 9.99935C2.29199 10.4809 2.53267 10.9306 2.93337 11.1978L3.64597 11.6728C4.22279 12.0573 4.50134 12.7588 4.34545 13.4343L4.21021 14.0204C4.09584 14.516 4.24485 15.0355 4.60449 15.3952C4.96413 15.7548 5.48368 15.9038 5.97928 15.7894L6.56533 15.6542C7.24083 15.4983 7.94229 15.7768 8.32684 16.3537L8.80191 17.0663C9.06908 17.467 9.51874 17.7077 10.0003 17.7077C10.4819 17.7077 10.9316 17.467 11.1987 17.0663L11.6738 16.3537C12.0583 15.7768 12.7598 15.4983 13.4353 15.6542L14.0214 15.7894C14.517 15.9038 15.0365 15.7548 15.3962 15.3952C15.7558 15.0355 15.9048 14.516 15.7904 14.0204L15.6552 13.4343C15.4993 12.7588 15.7778 12.0573 16.3547 11.6728L17.0673 11.1978C17.468 10.9306 17.7087 10.4809 17.7087 9.99935C17.7087 9.51777 17.468 9.0681 17.0673 8.80093L16.3547 8.32587C15.7778 7.94132 15.4993 7.23985 15.6552 6.56435L15.7904 5.97829C15.9048 5.48271 15.7558 4.96316 15.3962 4.60352C15.0365 4.24387 14.517 4.09487 14.0214 4.20923L13.4353 4.34447C12.7598 4.50037 12.0583 4.22182 11.6738 3.64499L11.1987 2.93239C10.9316 2.53169 10.4819 2.29102 10.0003 2.29102C9.51874 2.29102 9.06908 2.53169 8.80191 2.93239L8.32684 3.64499C7.94229 4.22182 7.24083 4.50037 6.56533 4.34447Z" stroke="#646363" stroke-width="1.25" stroke-linejoin="round"/>
<path d="M12.2913 10.0007C12.2913 11.2663 11.2653 12.2923 9.99967 12.2923C8.73401 12.2923 7.70801 11.2663 7.70801 10.0007C7.70801 8.73498 8.73401 7.70898 9.99967 7.70898C11.2653 7.70898 12.2913 8.73498 12.2913 10.0007Z" stroke="#646363" stroke-width="1.25" stroke-linejoin="round"/>
</svg>
