<svg width="20" height="20" viewBox="0 0 20 20" fill="none" xmlns="http://www.w3.org/2000/svg">
<path d="M5.20005 3.487L4.61933 1.97713C4.54724 1.7897 4.36717 1.66602 4.16634 1.66602C3.96552 1.66602 3.78544 1.7897 3.71335 1.97713L3.13263 3.487C3.04798 3.70707 2.87407 3.88099 2.65399 3.96564L1.14412 4.54636C0.956691 4.61845 0.833008 4.79852 0.833008 4.99935C0.833008 5.20017 0.956691 5.38025 1.14412 5.45234L2.65399 6.03306C2.87407 6.11771 3.04798 6.29162 3.13263 6.5117L3.71335 8.02157C3.78544 8.209 3.96552 8.33268 4.16634 8.33268C4.36717 8.33268 4.54724 8.209 4.61933 8.02157L5.20005 6.5117C5.2847 6.29162 5.45862 6.11771 5.67869 6.03306L7.18856 5.45234C7.37599 5.38025 7.49967 5.20017 7.49967 4.99935C7.49967 4.79852 7.37599 4.61845 7.18856 4.54636L5.67869 3.96564C5.45862 3.88099 5.2847 3.70707 5.20005 3.487Z" fill="#646363"/>
<path d="M16.8671 13.487L16.2863 11.9771C16.2142 11.7897 16.0342 11.666 15.8333 11.666C15.6325 11.666 15.4524 11.7897 15.3803 11.9771L14.7996 13.487C14.715 13.7071 14.5411 13.881 14.321 13.9656L12.8111 14.5463C12.6237 14.6184 12.5 14.7985 12.5 14.9993C12.5 15.2002 12.6237 15.3803 12.8111 15.4523L14.321 16.0331C14.5411 16.1177 14.715 16.2916 14.7996 16.5117L15.3803 18.0216C15.4524 18.209 15.6325 18.3327 15.8333 18.3327C16.0342 18.3327 16.2142 18.209 16.2863 18.0216L16.8671 16.5117C16.9517 16.2916 17.1256 16.1177 17.3457 16.0331L18.8556 15.4523C19.043 15.3803 19.1667 15.2002 19.1667 14.9993C19.1667 14.7985 19.043 14.6184 18.8556 14.5463L17.3457 13.9656C17.1256 13.881 16.9517 13.7071 16.8671 13.487Z" fill="#646363"/>
<path d="M9.79199 3.98828H15.2087C16.1292 3.98828 16.8753 4.73447 16.8753 5.65495V9.40498" stroke="#646363" stroke-width="1.25" stroke-linecap="round" stroke-linejoin="round"/>
<path d="M3.125 10.625V14.375C3.125 15.2955 3.87119 16.0417 4.79167 16.0417H10.2083" stroke="#646363" stroke-width="1.25" stroke-linecap="round" stroke-linejoin="round"/>
</svg>
