<svg width="20" height="20" viewBox="0 0 20 20" fill="none" xmlns="http://www.w3.org/2000/svg">
<path d="M4.79199 8.125H3.54199C2.85163 8.125 2.29199 8.68467 2.29199 9.375V12.2917C2.29199 12.982 2.85163 13.5417 3.54199 13.5417H4.79199V8.125Z" stroke="#646363" stroke-width="1.25" stroke-linecap="round" stroke-linejoin="round"/>
<path d="M16.458 8.125H15.208V13.5417H16.458C17.1483 13.5417 17.708 12.982 17.708 12.2917V9.375C17.708 8.68467 17.1483 8.125 16.458 8.125Z" stroke="#646363" stroke-width="1.25" stroke-linecap="round" stroke-linejoin="round"/>
<path d="M16.0413 8.12435V7.91602C16.0413 4.80942 13.3364 2.29102 9.99967 2.29102C6.66296 2.29102 3.95801 4.80942 3.95801 7.91602V8.12435" stroke="#646363" stroke-width="1.25" stroke-linecap="round" stroke-linejoin="round"/>
<path d="M10 16.3697V16.8757C10 17.3359 10.3731 17.709 10.8333 17.709H12.5C14.5711 17.709 16.25 16.0301 16.25 13.959" stroke="#646363" stroke-width="1.25" stroke-linecap="round" stroke-linejoin="round"/>
</svg>
