<svg width="20" height="20" viewBox="0 0 20 20" fill="none" xmlns="http://www.w3.org/2000/svg">
<path d="M9.375 3.75C9.72017 3.75 10 3.47018 10 3.125C10 2.77983 9.72017 2.5 9.375 2.5V3.75ZM17.5 10.625V10H16.25V10.625H17.5ZM14.2083 16.25H5.79167V17.5H14.2083V16.25ZM3.75 14.2083V5.79167H2.5V14.2083H3.75ZM5.79167 3.75H9.375V2.5H5.79167V3.75ZM16.25 10.625V14.2083H17.5V10.625H16.25ZM5.79167 16.25C5.31464 16.25 4.99447 16.2495 4.7479 16.2293C4.50863 16.2098 4.39423 16.1749 4.31876 16.1365L3.75128 17.2502C4.03233 17.3934 4.32954 17.4493 4.64611 17.4753C4.95538 17.5005 5.33527 17.5 5.79167 17.5V16.25ZM2.5 14.2083C2.5 14.6647 2.49952 15.0446 2.52478 15.3539C2.55065 15.6705 2.60658 15.9677 2.74978 16.2488L3.86353 15.6812C3.82508 15.6057 3.79018 15.4913 3.77063 15.2521C3.75048 15.0055 3.75 14.6853 3.75 14.2083H2.5ZM4.31876 16.1365C4.12276 16.0366 3.9634 15.8772 3.86353 15.6812L2.74978 16.2488C2.96948 16.6799 3.32007 17.0305 3.75128 17.2502L4.31876 16.1365ZM14.2083 17.5C14.6647 17.5 15.0446 17.5005 15.3539 17.4753C15.6705 17.4493 15.9677 17.3934 16.2488 17.2502L15.6812 16.1365C15.6057 16.1749 15.4913 16.2098 15.2521 16.2293C15.0055 16.2495 14.6853 16.25 14.2083 16.25V17.5ZM16.25 14.2083C16.25 14.6853 16.2495 15.0055 16.2293 15.2521C16.2098 15.4913 16.1749 15.6057 16.1365 15.6812L17.2502 16.2488C17.3934 15.9677 17.4493 15.6705 17.4753 15.3539C17.5005 15.0446 17.5 14.6647 17.5 14.2083H16.25ZM16.2488 17.2502C16.6799 17.0305 17.0305 16.6799 17.2502 16.2488L16.1365 15.6812C16.0366 15.8772 15.8772 16.0366 15.6812 16.1365L16.2488 17.2502ZM3.75 5.79167C3.75 5.31464 3.75048 4.99447 3.77063 4.7479C3.79018 4.50863 3.82508 4.39423 3.86353 4.31876L2.74978 3.75128C2.60658 4.03233 2.55065 4.32954 2.52478 4.64611C2.49952 4.95538 2.5 5.33527 2.5 5.79167H3.75ZM5.79167 2.5C5.33527 2.5 4.95538 2.49952 4.64611 2.52478C4.32954 2.55065 4.03233 2.60658 3.75128 2.74978L4.31876 3.86353C4.39423 3.82508 4.50863 3.79018 4.7479 3.77063C4.99447 3.75048 5.31464 3.75 5.79167 3.75V2.5ZM3.86353 4.31876C3.9634 4.12276 4.12276 3.9634 4.31876 3.86353L3.75128 2.74978C3.32007 2.96948 2.96948 3.32007 2.74978 3.75128L3.86353 4.31876Z" fill="#646363"/>
<path d="M7.29199 12.7087V10.5539C7.29199 10.3329 7.37979 10.1209 7.53607 9.96461L14.6552 2.84558C15.306 2.1947 16.3613 2.1947 17.0122 2.84558L17.1552 2.98855C17.806 3.63943 17.806 4.6947 17.1552 5.34558L10.0361 12.4647C9.87983 12.6209 9.66783 12.7087 9.44683 12.7087H7.29199Z" stroke="#646363" stroke-width="1.25" stroke-linecap="square" stroke-linejoin="round"/>
</svg>
