<svg width="413" height="88" viewBox="0 0 413 88" fill="none" xmlns="http://www.w3.org/2000/svg">
<g filter="url(#filter0_d_2104_2473)">
<path d="M13.274 45.288C9.962 45.288 8.738 43.146 8.738 38.862C8.738 34.56 10.43 32.472 13.274 32.472C16.604 32.472 17.774 34.56 17.774 38.862C17.774 43.146 16.136 45.288 13.274 45.288ZM13.274 43.29C14.93 43.29 15.344 41.958 15.344 38.862C15.344 35.748 14.93 34.452 13.274 34.452C11.636 34.452 11.168 35.748 11.168 38.862C11.168 41.958 11.636 43.29 13.274 43.29ZM19.3393 45V44.766L23.1013 39.672C23.8033 38.718 24.4153 37.71 24.4153 36.576C24.4153 35.244 23.7673 34.506 22.3093 34.506C21.1033 34.506 19.8433 35.28 19.1773 36.054V33.84C19.7353 33.174 20.9953 32.472 22.6693 32.472C25.4593 32.472 26.6653 33.984 26.6653 36.342C26.6653 38.286 25.3873 40.014 24.3253 41.4L23.1913 42.876H26.8633V45H19.3393ZM30.1899 45.288C29.3259 45.288 28.7499 44.676 28.7499 43.812C28.7499 42.948 29.3259 42.318 30.1899 42.318C31.0359 42.318 31.6299 42.948 31.6299 43.812C31.6299 44.676 31.0359 45.288 30.1899 45.288ZM30.1899 38.52C29.3259 38.52 28.7499 37.908 28.7499 37.044C28.7499 36.18 29.3259 35.55 30.1899 35.55C31.0359 35.55 31.6299 36.18 31.6299 37.044C31.6299 37.908 31.0359 38.52 30.1899 38.52ZM38.9068 45V42.48H32.9128V42.246L36.4048 32.76H38.6008L35.9548 40.338H38.9068V35.928H41.1028V40.338H42.6688L42.1288 42.48H41.1028V45H38.9068ZM46.493 45.288C44.927 45.288 44.171 44.982 43.703 44.73V42.444C44.189 42.84 44.999 43.344 46.277 43.344C48.023 43.344 48.923 42.606 48.923 41.418C48.923 40.302 48.311 39.618 46.349 39.618C45.359 39.618 44.603 39.816 44.063 40.086L44.333 32.76H51.173L50.543 34.794H46.331L46.259 37.782C46.403 37.728 46.925 37.674 47.285 37.674C49.877 37.674 51.353 38.808 51.353 41.22C51.353 43.722 49.265 45.288 46.493 45.288Z" fill="#456577"/>
<path d="M9.12 67V57.48H11.99C14.37 57.48 15.42 58.236 15.42 59.762C15.42 61.036 14.706 61.75 13.488 61.946V61.988C14.818 62.142 15.644 62.8 15.644 64.298C15.644 65.866 14.65 67 12.13 67H9.12ZM10.548 65.824H12.158C13.754 65.824 14.23 65.194 14.23 64.158C14.23 63.15 13.74 62.562 12.144 62.562H10.548V65.824ZM10.548 61.47H12.088C13.474 61.47 14.02 60.98 14.02 59.986C14.02 59.02 13.46 58.656 12.074 58.656H10.548V61.47ZM21.4085 67.224C18.7345 67.224 16.9285 65.6 16.9285 62.24C16.9285 58.908 19.1405 57.256 21.4085 57.256C24.0545 57.256 25.8745 58.908 25.8745 62.24C25.8745 65.572 23.6625 67.224 21.4085 67.224ZM21.4085 66.006C23.1445 66.006 24.4185 64.718 24.4185 62.296C24.4185 59.762 23.2425 58.474 21.4085 58.474C19.6585 58.474 18.3845 59.748 18.3845 62.17C18.3845 64.746 19.5465 66.006 21.4085 66.006ZM27.6044 67V57.48H28.8224L32.0844 62.464L35.1924 57.48H36.4244V67H34.9964V59.916L32.0424 64.578H32.0144L29.0324 59.916V67H27.6044Z" fill="#6B7280"/>
<path d="M60.3333 44C60.3333 45.4728 61.5272 46.6667 63 46.6667C64.4728 46.6667 65.6667 45.4728 65.6667 44C65.6667 42.5272 64.4728 41.3333 63 41.3333C61.5272 41.3333 60.3333 42.5272 60.3333 44ZM193 44.5C193.276 44.5 193.5 44.2761 193.5 44C193.5 43.7239 193.276 43.5 193 43.5V44V44.5ZM63 44V44.5H193V44V43.5H63V44Z" fill="#9CB9C9"/>
<path d="M180.96 28V19.84H181.98L186.072 25.792H186.096V19.84H187.188V28H186.3L182.076 21.892H182.052V28H180.96ZM191.637 28.192C189.873 28.192 188.649 27.112 188.649 24.736C188.649 22.372 190.077 21.28 191.769 21.28C193.533 21.28 194.745 22.372 194.745 24.736C194.745 27.112 193.317 28.192 191.637 28.192ZM191.685 27.196C192.885 27.196 193.533 26.272 193.533 24.736C193.533 23.2 192.909 22.264 191.709 22.264C190.521 22.264 189.873 23.2 189.873 24.736C189.873 26.272 190.497 27.196 191.685 27.196ZM196.098 28V21.472H197.214L197.298 22.084C197.538 21.676 198.186 21.28 199.11 21.28C200.778 21.28 201.462 22.108 201.462 23.86V28H200.274V24.076C200.274 22.744 199.866 22.204 198.822 22.204C197.994 22.204 197.478 22.612 197.298 22.948V28H196.098ZM202.998 24.868V23.848H206.07V24.868H202.998ZM209.345 28.192C208.373 28.192 207.725 27.928 207.413 27.676V26.476C207.761 26.824 208.349 27.208 209.321 27.208C210.353 27.208 210.785 26.776 210.785 26.224C210.785 25.636 210.509 25.444 209.609 25.276L209.165 25.192C208.013 24.976 207.341 24.424 207.341 23.26C207.341 22.144 208.169 21.28 209.765 21.28C210.677 21.28 211.373 21.52 211.697 21.808V22.996C211.325 22.576 210.701 22.252 209.789 22.252C208.865 22.252 208.433 22.6 208.433 23.152C208.433 23.716 208.709 23.956 209.537 24.112L209.981 24.196C211.229 24.436 211.901 24.892 211.901 26.092C211.901 27.184 211.073 28.192 209.345 28.192ZM215.115 28.192C213.999 28.192 213.507 27.556 213.507 26.428V22.42H212.667V22.072L213.375 21.472L214.263 19.936H214.695V21.472H216.531L216.195 22.42H214.695V26.356C214.695 26.908 214.899 27.208 215.379 27.208C215.847 27.208 216.183 26.944 216.375 26.68V27.736C216.195 27.928 215.775 28.192 215.115 28.192ZM220.254 28.192C218.49 28.192 217.266 27.112 217.266 24.736C217.266 22.372 218.694 21.28 220.386 21.28C222.15 21.28 223.362 22.372 223.362 24.736C223.362 27.112 221.934 28.192 220.254 28.192ZM220.302 27.196C221.502 27.196 222.15 26.272 222.15 24.736C222.15 23.2 221.526 22.264 220.326 22.264C219.138 22.264 218.49 23.2 218.49 24.736C218.49 26.272 219.114 27.196 220.302 27.196ZM224.715 30.292V21.472H225.831L225.915 22.12C226.131 21.688 226.743 21.28 227.727 21.28C229.347 21.28 230.367 22.204 230.367 24.58C230.367 26.956 229.071 28.192 227.463 28.192C226.971 28.192 226.239 28.084 225.915 27.664V30.292H224.715ZM227.331 27.244C228.543 27.244 229.143 26.176 229.143 24.64C229.143 23.104 228.651 22.252 227.439 22.252C226.683 22.252 226.107 22.564 225.915 23.008V26.644C226.203 27.112 226.839 27.244 227.331 27.244Z" fill="#6B7280"/>
<path d="M211.5 44C211.5 43.3538 210.978 42.8316 210.332 42.8316H207.386L204.635 38.1557C204.579 38.0592 204.475 38 204.363 38L203.226 38C203.127 38 203.033 38.0469 202.973 38.1266C202.914 38.2063 202.895 38.3094 202.923 38.4049L204.225 42.8316H201.7L200.939 41.5638C200.882 41.4687 200.779 41.4105 200.668 41.4105H199.816C199.719 41.4105 199.627 41.4553 199.567 41.532C199.507 41.6086 199.486 41.7086 199.509 41.8029L200.059 44L199.509 46.1971C199.486 46.2914 199.507 46.3914 199.567 46.468C199.627 46.5447 199.719 46.5895 199.816 46.5895H200.668C200.779 46.5895 200.882 46.5313 200.939 46.4362L201.7 45.1684H204.225L202.923 49.5951C202.895 49.6906 202.914 49.7937 202.973 49.8734C203.033 49.9531 203.127 50 203.226 50H204.363C204.475 50 204.579 49.9408 204.635 49.8443L207.386 45.1684H210.332C210.978 45.1684 211.5 44.6462 211.5 44Z" fill="#9CB9C9"/>
<path d="M186.452 68L188.972 60.62H185.396L185.12 59.84H190.088V59.936L187.34 68H186.452ZM191.068 68V59.192H191.968V62.18C192.208 61.784 192.904 61.352 193.864 61.352C195.484 61.352 196.192 62.132 196.192 63.836V68H195.292V64.004C195.292 62.612 194.8 62.06 193.66 62.06C192.748 62.06 192.136 62.492 191.968 62.84V68H191.068ZM197.851 69.824L197.419 69.74C197.635 69.38 197.923 68.72 197.959 68.12C197.719 68.036 197.587 67.832 197.587 67.568C197.587 67.196 197.827 66.956 198.199 66.956C198.547 66.956 198.775 67.208 198.775 67.64C198.775 68.564 198.199 69.452 197.851 69.824ZM206.583 68V66.092H202.455V65.972L204.759 59.84H205.611L203.631 65.252H206.583V61.964H207.435V65.252H208.527L208.299 66.092H207.435V68H206.583ZM213.098 68V66.092H208.97V65.972L211.274 59.84H212.126L210.146 65.252H213.098V61.964H213.95V65.252H215.042L214.814 66.092H213.95V68H213.098ZM216.146 68V61.544H216.998L217.046 62.192C217.274 61.784 217.886 61.352 218.81 61.352C219.83 61.352 220.454 61.676 220.778 62.396C221.018 61.94 221.63 61.352 222.794 61.352C224.354 61.352 225.002 62.132 225.002 63.836V68H224.114V64.004C224.114 62.612 223.67 62.06 222.59 62.06C221.678 62.06 221.126 62.528 220.934 62.936C220.994 63.212 221.018 63.524 221.018 63.836V68H220.13V64.004C220.13 62.612 219.686 62.06 218.606 62.06C217.766 62.06 217.214 62.468 217.046 62.852V68H216.146Z" fill="#6B7280"/>
<path d="M218 43.5C217.724 43.5 217.5 43.7239 217.5 44C217.5 44.2761 217.724 44.5 218 44.5V44V43.5ZM345.333 44C345.333 45.4728 346.527 46.6667 348 46.6667C349.473 46.6667 350.667 45.4728 350.667 44C350.667 42.5272 349.473 41.3333 348 41.3333C346.527 41.3333 345.333 42.5272 345.333 44ZM218 44V44.5H348V44V43.5H218V44Z" fill="#9CB9C9"/>
<path d="M363.274 45.288C359.962 45.288 358.738 43.146 358.738 38.862C358.738 34.56 360.43 32.472 363.274 32.472C366.604 32.472 367.774 34.56 367.774 38.862C367.774 43.146 366.136 45.288 363.274 45.288ZM363.274 43.29C364.93 43.29 365.344 41.958 365.344 38.862C365.344 35.748 364.93 34.452 363.274 34.452C361.636 34.452 361.168 35.748 361.168 38.862C361.168 41.958 361.636 43.29 363.274 43.29ZM373.623 45.288C370.833 45.288 369.267 43.29 369.267 40.518C369.267 36.18 371.913 33.66 373.929 32.76H377.151V32.868C374.973 33.822 373.191 35.064 372.273 37.17C372.741 36.864 373.389 36.666 374.199 36.666C376.755 36.666 378.159 38.304 378.159 40.806C378.159 43.29 376.413 45.288 373.623 45.288ZM373.713 43.272C375.081 43.272 375.819 42.264 375.819 40.896C375.819 39.528 375.081 38.556 373.713 38.556C372.687 38.556 372.057 38.934 371.679 39.42C371.625 39.852 371.607 40.284 371.607 40.752C371.607 42.264 372.345 43.272 373.713 43.272ZM381.209 45.288C380.345 45.288 379.769 44.676 379.769 43.812C379.769 42.948 380.345 42.318 381.209 42.318C382.055 42.318 382.649 42.948 382.649 43.812C382.649 44.676 382.055 45.288 381.209 45.288ZM381.209 38.52C380.345 38.52 379.769 37.908 379.769 37.044C379.769 36.18 380.345 35.55 381.209 35.55C382.055 35.55 382.649 36.18 382.649 37.044C382.649 37.908 382.055 38.52 381.209 38.52ZM389.926 45V42.48H383.932V42.246L387.424 32.76H389.62L386.974 40.338H389.926V35.928H392.122V40.338H393.688L393.148 42.48H392.122V45H389.926ZM399.169 45.288C395.857 45.288 394.633 43.146 394.633 38.862C394.633 34.56 396.325 32.472 399.169 32.472C402.499 32.472 403.669 34.56 403.669 38.862C403.669 43.146 402.031 45.288 399.169 45.288ZM399.169 43.29C400.825 43.29 401.239 41.958 401.239 38.862C401.239 35.748 400.825 34.452 399.169 34.452C397.531 34.452 397.063 35.748 397.063 38.862C397.063 41.958 397.531 43.29 399.169 43.29Z" fill="#456577"/>
<path d="M358.098 67L361.822 57.48H362.788L366.456 67H364.958L364.146 64.83H361.206L360.772 63.766H363.74L362.452 60.294L362.228 59.594L361.99 60.294L359.47 67H358.098ZM371.156 67.224C368.846 67.224 367.376 66.104 367.376 63.024V57.48H368.804V63.052C368.804 65.166 369.672 66.006 371.254 66.006C372.808 66.006 373.69 65.138 373.69 63.052V57.48H375.09V63.024C375.09 65.978 373.41 67.224 371.156 67.224ZM377.235 67V57.48H378.663V67H377.235ZM383.157 67V62.73H379.531L378.747 61.512H383.157V57.48H384.585V67H383.157Z" fill="#6B7280"/>
</g>
<defs>
<filter id="filter0_d_2104_2473" x="0" y="-4" width="413" height="104" filterUnits="userSpaceOnUse" color-interpolation-filters="sRGB">
<feFlood flood-opacity="0" result="BackgroundImageFix"/>
<feColorMatrix in="SourceAlpha" type="matrix" values="0 0 0 0 0 0 0 0 0 0 0 0 0 0 0 0 0 0 127 0" result="hardAlpha"/>
<feOffset dy="4"/>
<feGaussianBlur stdDeviation="4"/>
<feComposite in2="hardAlpha" operator="out"/>
<feColorMatrix type="matrix" values="0 0 0 0 0 0 0 0 0 0 0 0 0 0 0 0 0 0 0.05 0"/>
<feBlend mode="normal" in2="BackgroundImageFix" result="effect1_dropShadow_2104_2473"/>
<feBlend mode="normal" in="SourceGraphic" in2="effect1_dropShadow_2104_2473" result="shape"/>
</filter>
</defs>
</svg>
